<?xml version="1.0" standalone="no"?>
<!DOCTYPE svg PUBLIC "-//W3C//DTD SVG 20010904//EN"
 "http://www.w3.org/TR/2001/REC-SVG-20010904/DTD/svg10.dtd">
<svg version="1.0" xmlns="http://www.w3.org/2000/svg"
 width="600.000000pt" height="600.000000pt" viewBox="0 0 600.000000 600.000000"
 preserveAspectRatio="xMidYMid meet">
<metadata>
Created by potrace 1.13, written by Peter Selinger 2001-2015
</metadata>
<g transform="translate(0.000000,600.000000) scale(0.100000,-0.100000)"
fill="#000000" stroke="none">
<path d="M2925 5846 c-138 -63 -156 -257 -33 -342 36 -25 50 -29 113 -29 63 0
77 4 113 29 109 75 109 247 1 322 -49 33 -144 44 -194 20z"/>
<path d="M2205 5756 c-138 -63 -156 -257 -33 -342 36 -25 50 -29 113 -29 63 0
77 4 113 29 109 75 109 247 1 322 -49 33 -144 44 -194 20z"/>
<path d="M3605 5756 c-138 -63 -156 -257 -33 -342 36 -25 50 -29 113 -29 63 0
77 4 113 29 109 75 109 247 1 322 -49 33 -144 44 -194 20z"/>
<path d="M1605 5496 c-138 -63 -156 -257 -33 -342 36 -25 50 -29 113 -29 63 0
77 4 113 29 109 75 109 247 1 322 -49 33 -144 44 -194 20z"/>
<path d="M4245 5496 c-138 -63 -156 -257 -33 -342 36 -25 50 -29 113 -29 63 0
77 4 113 29 109 75 109 247 1 322 -49 33 -144 44 -194 20z"/>
<path d="M2835 5260 c-1179 -86 -2095 -1072 -2095 -2255 0 -598 239 -1176 659
-1595 365 -364 816 -584 1331 -651 52 -6 174 -12 270 -12 190 0 304 12 475 48
1039 222 1785 1145 1785 2210 0 904 -543 1727 -1370 2078 -332 141 -700 203
-1055 177z m225 -545 l0 -285 -60 0 -60 0 0 285 0 285 60 0 60 0 0 -285z
m-443 -41 c39 -148 69 -272 65 -275 -8 -7 -103 -31 -107 -27 -9 10 -145 541
-140 546 8 9 87 31 100 28 5 -2 42 -124 82 -272z m908 260 c20 -3 39 -12 41
-19 4 -10 -130 -533 -139 -541 -3 -4 -108 23 -112 28 -2 3 103 401 135 511 8
26 16 37 25 33 7 -2 30 -8 50 -12z m-1339 -396 c70 -123 134 -233 141 -244 13
-20 11 -24 -38 -53 -28 -18 -52 -31 -54 -29 -9 11 -275 478 -277 487 -3 11 67
58 88 60 6 1 69 -99 140 -221z m1818 196 c26 -14 46 -30 44 -34 -2 -4 -66
-115 -142 -247 l-139 -241 -49 30 c-26 16 -48 32 -48 35 0 12 274 483 281 483
4 0 28 -12 53 -26z m-2015 -723 l-43 -42 -198 198 c-109 109 -198 202 -198
207 0 6 17 27 37 48 l37 38 204 -203 204 -204 -43 -42z m2461 365 c0 -11 -380
-396 -391 -396 -3 0 -24 17 -46 38 l-41 37 201 202 201 203 38 -37 c21 -20 38
-42 38 -47z m-2913 -457 c125 -72 234 -137 242 -144 11 -11 9 -20 -14 -59 -18
-31 -32 -45 -42 -42 -12 5 -102 56 -416 238 l-67 39 27 50 c16 27 31 49 35 49
3 0 109 -59 235 -131z m3197 84 c15 -25 23 -50 19 -54 -7 -6 -410 -241 -465
-270 -13 -7 -22 0 -43 37 -14 24 -25 49 -23 55 4 11 457 277 475 278 6 1 23
-20 37 -46z m-3336 -508 c128 -34 235 -64 237 -67 8 -8 -27 -108 -38 -108 -8
0 -440 113 -521 137 -20 5 -19 39 3 95 9 25 12 26 48 16 21 -6 143 -39 271
-73z m3534 29 c15 -54 15 -56 -6 -64 -21 -9 -507 -140 -519 -140 -8 0 -37 103
-31 110 4 4 514 147 535 149 3 1 13 -24 21 -55z m-3354 -521 l-3 -58 -287 -3
-288 -2 0 60 0 60 290 0 291 0 -3 -57z m3422 -3 l0 -60 -282 2 -283 3 -3 58
-3 57 286 0 285 0 0 -60z m-3376 -362 c8 -29 12 -56 8 -59 -11 -10 -535 -148
-543 -143 -8 5 -33 103 -28 109 5 4 521 143 536 144 6 1 18 -23 27 -51z m3061
-24 c138 -36 252 -68 254 -70 5 -5 -19 -114 -25 -114 -8 0 -539 142 -542 145
-2 2 4 28 13 59 13 45 20 56 33 52 9 -3 130 -35 267 -72z m-2917 -326 c15 -26
24 -49 22 -51 -14 -12 -479 -277 -486 -277 -5 0 -21 22 -36 49 l-28 48 243
141 c133 78 246 140 250 139 5 -2 21 -24 35 -49z m2762 -98 c118 -67 219 -126
223 -130 9 -8 -43 -100 -57 -100 -6 0 -451 252 -483 274 -1 1 12 25 29 54 28
50 31 52 52 39 11 -7 118 -69 236 -137z m-2536 -196 c20 -20 36 -39 36 -43 0
-3 -90 -96 -199 -205 l-200 -200 -43 42 -43 42 200 200 c110 110 203 200 206
200 4 0 23 -16 43 -36z m2261 -164 l200 -200 -43 -42 -42 -43 -201 201 -200
200 38 41 c21 22 40 41 43 42 3 0 95 -89 205 -199z m-1965 -61 c48 -29 50 -33
37 -53 -8 -11 -71 -121 -142 -243 -70 -123 -132 -223 -136 -223 -5 0 -29 13
-54 28 l-44 28 142 247 c78 136 143 247 144 247 2 0 25 -14 53 -31z m1621
-219 c126 -220 138 -244 122 -255 -28 -21 -83 -48 -87 -44 -21 23 -277 482
-271 487 12 13 90 60 93 57 2 -2 66 -112 143 -245z m-1276 75 l53 -16 -34
-127 c-19 -70 -50 -190 -71 -267 -20 -77 -39 -143 -42 -147 -7 -8 -91 10 -105
23 -8 8 131 549 141 549 3 0 29 -7 58 -15z m799 -2 c20 -68 136 -508 136 -519
0 -12 -98 -49 -107 -40 -5 4 -131 471 -139 513 -6 30 -4 32 43 46 63 20 61 20
67 0z m-374 -328 l0 -285 -60 0 -60 0 0 285 0 285 60 0 60 0 0 -285z"/>
<path d="M1045 5066 c-138 -63 -156 -257 -33 -342 36 -25 50 -29 113 -29 63 0
77 4 113 29 109 75 109 247 1 322 -49 33 -144 44 -194 20z"/>
<path d="M4795 5066 c-138 -63 -156 -257 -33 -342 36 -25 50 -29 113 -29 63 0
77 4 113 29 109 75 109 247 1 322 -49 33 -144 44 -194 20z"/>
<path d="M605 4496 c-138 -63 -156 -257 -33 -342 36 -25 50 -29 113 -29 63 0
77 4 113 29 109 75 109 247 1 322 -49 33 -144 44 -194 20z"/>
<path d="M5225 4496 c-138 -63 -156 -257 -33 -342 36 -25 50 -29 113 -29 63 0
77 4 113 29 109 75 109 247 1 322 -49 33 -144 44 -194 20z"/>
<path d="M355 3876 c-138 -63 -156 -257 -33 -342 36 -25 50 -29 113 -29 63 0
77 4 113 29 109 75 109 247 1 322 -49 33 -144 44 -194 20z"/>
<path d="M5485 3876 c-138 -63 -156 -257 -33 -342 36 -25 50 -29 113 -29 63 0
77 4 113 29 109 75 109 247 1 322 -49 33 -144 44 -194 20z"/>
<path d="M265 3186 c-138 -63 -156 -257 -33 -342 36 -25 50 -29 113 -29 63 0
77 4 113 29 109 75 109 247 1 322 -49 33 -144 44 -194 20z"/>
<path d="M5575 3186 c-138 -63 -156 -257 -33 -342 36 -25 50 -29 113 -29 63 0
77 4 113 29 109 75 109 247 1 322 -49 33 -144 44 -194 20z"/>
<path d="M355 2506 c-138 -63 -156 -257 -33 -342 36 -25 50 -29 113 -29 63 0
77 4 113 29 109 75 109 247 1 322 -49 33 -144 44 -194 20z"/>
<path d="M5485 2506 c-138 -63 -156 -257 -33 -342 36 -25 50 -29 113 -29 63 0
77 4 113 29 109 75 109 247 1 322 -49 33 -144 44 -194 20z"/>
<path d="M615 1866 c-138 -63 -156 -257 -33 -342 36 -25 50 -29 113 -29 63 0
77 4 113 29 109 75 109 247 1 322 -49 33 -144 44 -194 20z"/>
<path d="M5225 1866 c-138 -63 -156 -257 -33 -342 36 -25 50 -29 113 -29 63 0
77 4 113 29 109 75 109 247 1 322 -49 33 -144 44 -194 20z"/>
<path d="M1045 1306 c-138 -63 -156 -257 -33 -342 36 -25 50 -29 113 -29 63 0
77 4 113 29 109 75 109 247 1 322 -49 33 -144 44 -194 20z"/>
<path d="M4795 1306 c-138 -63 -156 -257 -33 -342 36 -25 50 -29 113 -29 63 0
77 4 113 29 109 75 109 247 1 322 -49 33 -144 44 -194 20z"/>
<path d="M1575 886 c-138 -63 -156 -257 -33 -342 36 -25 50 -29 113 -29 63 0
77 4 113 29 109 75 109 247 1 322 -49 33 -144 44 -194 20z"/>
<path d="M4245 886 c-138 -63 -156 -257 -33 -342 36 -25 50 -29 113 -29 63 0
77 4 113 29 109 75 109 247 1 322 -49 33 -144 44 -194 20z"/>
<path d="M2205 626 c-138 -63 -156 -257 -33 -342 36 -25 50 -29 113 -29 63 0
77 4 113 29 109 75 109 247 1 322 -49 33 -144 44 -194 20z"/>
<path d="M3605 626 c-138 -63 -156 -257 -33 -342 60 -42 166 -42 226 0 109 75
109 247 1 322 -49 33 -144 44 -194 20z"/>
<path d="M2925 526 c-138 -63 -156 -257 -33 -342 36 -25 50 -29 113 -29 63 0
77 4 113 29 109 75 109 247 1 322 -49 33 -144 44 -194 20z"/>
</g>
</svg>
